# xmcd
#
# Track frame offsets: 
#        150
#        13864
#        25935
#        33306
#        48614
#        56773
#        66616
#        77436
#        94686
#        103934
#        116237
#        130347
#        142994
#        157237
#        166480
#
# Disc length: 2364 seconds
#
# Revision: 0
# Processed by: cddbd v1.4PL0 Copyright (c) Steve Scherf et al.
# Submitted via: ExactAudioCopy v0.95a3
#
DISCID=d9093a0f
DTITLE=Blind John Davis - Blues Legends 16 - Blind John Davis
DYEAR=1900
DGENRE=Blues
TTITLE0=Memphis Blues (W. C. Handy - Bearb. Davis)
TTITLE1=Rockin´ Chair Boogie (John Davis)
TTITLE2=The House Of Blues Lights (Trad. - Davis)
TTITLE3=C. C. Rider (W. C. Handy - Bearb. Davis)
TTITLE4=Run Away Boogie
TTITLE5=Pinetop Boogie (Smith)
TTITLE6=My Own Boogie
TTITLE7=Everyday I Have The Blues
TTITLE8=Texas Tony
TTITLE9=Trouble In Mind (Richard Jones)
TTITLE10=If I Had A Listen
TTITLE11=St. Louis Blues (W. C. Handy - Bearb. Davis)
TTITLE12=After Hours (Eskin Hawkins)
TTITLE13=How Long Blues (Leroy Carr)
TTITLE14=Everybody´s Boogie
EXTD=
EXTT0=
EXTT1=
EXTT2=
EXTT3=
EXTT4=
EXTT5=
EXTT6=
EXTT7=
EXTT8=
EXTT9=
EXTT10=
EXTT11=
EXTT12=
EXTT13=
EXTT14=
PLAYORDER=
